<svg xmlns="http://www.w3.org/2000/svg" xmlns:xlink="http://www.w3.org/1999/xlink" width="500" zoomAndPan="magnify" viewBox="0 0 375 374.999991" height="500" preserveAspectRatio="xMidYMid meet" version="1.2"><defs><clipPath id="3c3862f173"><path d="M 6.136719 3 L 365 3 L 365 316 L 6.136719 316 Z M 6.136719 3 "/></clipPath></defs><g id="3da2b69a66"><rect x="0" width="375" y="0" height="374.999991" style="fill:#ffffff;fill-opacity:1;stroke:none;"/><rect x="0" width="375" y="0" height="374.999991" style="fill:#0f3f5c;fill-opacity:1;stroke:none;"/><g clip-rule="nonzero" clip-path="url(#3c3862f173)"><path style=" stroke:none;fill-rule:nonzero;fill:#ffffff;fill-opacity:1;" d="M 209.695312 296.621094 C 203.675781 297.527344 197.382812 297.976562 190.816406 297.976562 C 158.398438 297.976562 132.015625 287.632812 111.667969 266.941406 C 91.667969 245.90625 81.664062 220.382812 81.664062 190.378906 C 81.664062 154.859375 92.011719 126.578125 112.703125 105.542969 C 133.394531 84.503906 160.296875 73.984375 193.40625 73.984375 C 240.652344 73.984375 271.171875 93.816406 284.96875 133.476562 L 364.632812 133.476562 C 354.632812 91.402344 333.769531 59.328125 302.039062 37.253906 C 269.964844 14.492188 233.40625 3.113281 192.367188 3.113281 C 139.605469 3.113281 95.289062 20.703125 59.421875 55.878906 C 23.898438 91.054688 6.136719 136.0625 6.136719 190.898438 C 6.136719 280.542969 63.589844 321.941406 148.09375 314.367188 C 169.570312 312.441406 190.511719 306.742188 209.695312 296.621094 Z M 209.695312 296.621094 "/></g><path style=" stroke:none;fill-rule:nonzero;fill:#0cc0df;fill-opacity:1;" d="M 368.773438 166.066406 L 368.773438 362.125 L 306.953125 362.125 L 307.214844 313.496094 C 249.585938 394.328125 123.003906 381.738281 58.386719 317.117188 C 160.160156 357.769531 257.898438 311.679688 288.070312 232.28125 L 184.09375 232.28125 L 184.09375 166.066406 Z M 368.773438 166.066406 "/></g></svg>